<svg width="312.32533" height="689.35327" xmlns="http://www.w3.org/2000/svg" data-name="Layer 1">
 <g>
  <title>Layer 1</title>
  <path id="svg_1" fill="#2f2e41" d="m312.32532,689.35328l-121.03,0l-1.18,-5.1l-6.47,-28.06l-6.46,28.06l-1.17,5.1l-124.5,0c-0.27,-1.72 -0.53,-3.42 -0.79,-5.1c-3.63,-23.17 -7.22,-42.46 -10.26,-47.98c-8.82,-15.98 -0.6,-5.97 8.81,-15.39c9.41,-9.41 0,0 -5.51,-12.08c-5.52,-12.08 24.37,-103.88 24.37,-103.88l203.9,3.01s37.66,65.89 38.05,74.98c0.22,5.17 1.27,57.32 2.13,101.34c0.03999,1.70998 0.06996,3.41994 0.11,5.1z"/>
  <path id="svg_2" fill="#e6e6e6" d="m193.40515,568.76453s86.78375,39.925 100.456,9.29968s6.90448,-71.56005 -1.56573,-76.91809s-17.77167,-30.04309 -5.38013,-47.1029s-7.09991,-45.88031 -12.55743,-48.82343c-4.15564,-2.241 -15.46167,-128.52191 -20.61933,-188.64374a48.38235,48.38235 0 0 0 -32.23834,-41.53308l0,0l-20.51539,-33.13334l-52.62915,-0.47348l-26.2919,36.45161l-37.9447,14.19278l-28.48261,117.62778s-0.275,51.957 5.71109,107.43243c1.86252,17.26062 4.33118,34.86188 7.60285,51.34473c7.706,38.823 -25.86032,70.79376 -6.67206,78.14258c53.51819,20.49658 131.12683,22.13647 131.12683,22.13647z"/>
  <path id="svg_3" fill="#3f3d56" d="m84.47023,493.13572l166.95367,-6a8.63685,8.63685 0 0 1 8.63686,8.63684l0,83.71454a8.63683,8.63683 0 0 1 -8.63686,8.63684l-156.95367,0a8.63683,8.63683 0 0 1 -8.63685,-8.63684c-9.255,-23.5864 -16.99663,-46.545 -10,-77.71454a8.63685,8.63685 0 0 1 8.63685,-8.63684z"/>
  <rect id="svg_4" fill="#2f2e41" height="2" width="137.38036" y="503.42215" x="103.11943"/>
  <rect id="svg_5" fill="#2f2e41" height="4.28271" width="137.37998" y="532.30344" x="103.12012"/>
  <rect id="svg_6" fill="#6c63ff" height="61.48572" width="126.00779" y="442.02643" x="103.11966"/>
  <rect id="svg_7" opacity="0.2" height="61.48572" width="126.00779" y="442.02643" x="103.11966"/>
  <rect id="svg_8" fill="#6c63ff" height="61.48572" width="86.91502" y="442.02643" x="142.21244"/>
  <path id="svg_9" fill="#fff" d="m215.54475,452.29413l-17.1631,0a0.59381,0.59381 0 0 1 0,-1.18762l17.1631,0a0.59381,0.59381 0 0 1 0,1.18762z"/>
  <path id="svg_10" fill="#fff" d="m130.90692,495.18232l-17.16309,0a0.59382,0.59382 0 0 1 0,-1.18763l17.16309,0a0.59381,0.59381 0 0 1 0,1.18763z"/>
  <path id="svg_11" fill="#fff" d="m163.92706,452.29413l-52.80658,0a0.61747,0.61747 0 0 1 -0.619,-0.49353a0.55931,0.55931 0 0 1 0.58558,-0.6651l53.12207,0a0.6176,0.6176 0 0 1 -0.28205,1.15863l-0.00002,0z"/>
  <path id="svg_12" fill="#2f2e41" d="m248.56824,587.21412l-106.66193,23.65491a12.85728,12.85728 0 0 1 -12.85724,-12.85724c-10.47538,-26.79837 -10.65282,-51.91853 0,-75.27374a12.85728,12.85728 0 0 1 12.85724,-12.85724l106.66193,-23.6549a12.85724,12.85724 0 0 1 12.85723,12.85721c9.85742,28.11328 18.00751,55.70313 0,75.27374a12.85729,12.85729 0 0 1 -12.85723,12.85726z"/>
  <path id="svg_13" fill="#3f3d56" d="m152.24902,525.85736l1.36501,8.42967l69.6,-1.81462l0,0c0.23338,-4.41383 -31.37986,-7.71824 -64.90238,-6.784l-6.06263,0.16895z"/>
  <path id="svg_14" fill="#3f3d56" d="m152.24902,546.85736l1.36501,8.42967l69.6,-1.81462l0,0c0.23338,-4.41383 -31.37986,-7.71824 -64.90238,-6.784l-6.06263,0.16895z"/>
  <path id="svg_15" fill="#3f3d56" d="m152.24902,571.85736l1.36501,8.42967l69.6,-1.81462l0,0c0.23338,-4.41383 -31.37986,-7.71824 -64.90238,-6.784l-6.06263,0.16895z"/>
  <path id="svg_16" fill="#ffcc99" d="m274.63446,399.54374l-1.96136,18.81839l-0.45978,4.35223l-0.70484,6.98785l-15.14044,145.24469a19.77416,19.77416 0 0 1 -8.67364,22.5575a18.96429,18.96429 0 0 1 -25.99012,-6.5589c-0.092,-0.1532 -0.15338,-0.3064 -0.24524,-0.45959a19.88476,19.88476 0 0 1 6.8653,-26.84839a20.14915,20.14915 0 0 1 2.85034,-1.34857l-0.12256,-4.07636l-0.36779,-12.78052l-0.27594,-9.65442l-0.58234,-19.21662l-0.2146,-7.44782l-0.7049,-24.15106l-0.67419,-23.29321l-0.82758,-28.22742l-0.64373,-21.6994l7.81543,-1.99225l40.05798,-10.20613z"/>
  <path id="svg_17" fill="#e6e6e6" d="m289.77496,374.99595c-0.70483,3.59253 -1.34857,5.914 -1.80816,6.66c-3.9538,6.19043 -6.375,-2.45941 -4.19886,14.12173c1.747,13.45835 -8.735,11.77243 -4.96508,14.64664c6.22161,4.75318 -2.36,6.85346 -6.12976,9.42352c-1.68586,1.13312 2.98174,0.864 4.91265,2.43919c0.91858,0.71967 -3.44384,2.79952 -2.36889,3.25362c4.107,1.93451 1.747,3.39924 -3.70838,4.53223c-9.04144,1.8515 -26.542,2.76355 -37.11584,3.1228c-3.00354,0.13813 -5.45538,0.19349 -6.98779,0.24878c-1.134,0.02753 -1.77771,0.02753 -1.77771,0.02753s-2.66645,-1.71338 -3.76972,-6.93628c-0.79693,-3.64789 -0.79693,-9.03674 1.40973,-16.7746c1.34857,-4.75332 3.64722,-8.1524 4.99579,-10.88827a7.18976,7.18976 0 0 0 1.04211,-4.25592l0,-0.02768c-0.2146,-1.40924 -1.226,-2.70819 -3.52472,-4.08994c-4.13751,-2.48706 -1.83886,-7.71017 1.37922,-12.6293c3.06488,-4.615 6.92663,-9.00912 6.92663,-10.61182c0,-3.39923 -25.49988,-75.63751 -25.49988,-75.63751l9.37845,-109.07623a36.07551,36.07551 0 0 1 24.45764,-6.10727c5.91541,0.77368 12.50476,3.26092 19.2782,8.84311c5.91522,4.89148 11.98358,12.18722 17.807,22.74386c24.76426,44.85189 15.53904,140.49723 10.26737,166.97181z"/>
  <circle id="svg_18" fill="#ffcc99" r="54.73784" cy="74.33239" cx="166.11047"/>
  <path id="svg_19" fill="#2f2e41" d="m223.07519,102.1814s-15.18865,12.40323 -23.51709,16.02173c2.30585,-8.00812 4.70838,-21.75676 7.00782,-29.74213c1.19574,-4.20175 2.417,-8.49492 2.22247,-12.83758c-0.211,-4.37193 -2.08282,-8.88634 -5.78925,-11.15169a10.0547,10.0547 0 0 0 -14.60894,12.26892c-3.62805,-0.24716 -5.677,-4.392 -6.12116,-8.01553c-0.44421,-3.62372 -0.10785,-7.57187 -2.11053,-10.644c-1.93042,-2.978 -5.74182,-4.336 -9.31177,-4.17271c-3.54083,0.14691 -6.90338,1.60035 -10.07574,3.25485c-9.07154,4.693 -17.30988,11.171 -27.07019,14.26726a32.90308,32.90308 0 0 1 -6.00843,1.30764a25.779,25.779 0 0 0 -5.54211,-16.28318a44.45273,44.45273 0 0 1 -4.571,15.78131a18.86245,18.86245 0 0 1 -11.69421,-7.47393c-3.055,-4.42526 -3.80634,-10.13075 -3.08752,-15.45118a36.53516,36.53516 0 0 1 1.77649,-7.16989a22.52994,22.52994 0 0 0 4.1748,-1.449a24.51589,24.51589 0 0 0 7.86627,-5.49725a40.18032,40.18032 0 0 1 -9.015,-0.63959c0.07385,-0.17648 0.14135,-0.3302 0.21527,-0.50682c1.70111,-3.7158 3.58392,-7.55336 6.86865,-9.96522c3.28467,-2.41173 8.37238,-2.89155 11.2254,0.04786a52.08774,52.08774 0 0 1 71.90845,-15.98247q0.38984,0.248 0.77515,0.50294a24.75864,24.75864 0 0 0 -4.80207,8.29846a42.21844,42.21844 0 0 1 10.21961,-3.683c2.5,2.79165 4.08038,6.14056 3.40253,9.72244c4.14514,2.01787 12.22863,5.38 8.40777,7.59306a53.38331,53.38331 0 0 1 7.25415,71.59871l0.00018,-0.00001z"/>
  <path id="svg_20" fill="#ffcc99" d="m155.21375,478.1684a18.96931,18.96931 0 0 1 -20.1289,17.70917a4.20385,4.20385 0 0 0 -0.51392,-0.06433a19.90236,19.90236 0 0 1 -18.2445,-20.8783a21.3391,21.3391 0 0 1 0.51391,-3.10486l-3.42615,-2.20569l-10.74969,-6.95947l-8.0943,-5.22491l-16.1673,-10.42847l-6.25287,-4.02576l-0.83514,-0.53534l-19.465,-12.59124l-15.632,-10.08576l-1.32764,-0.85663l-2.61255,-1.69165l-23.72638,-15.31082l-6.38123,-4.11139c-0.02145,-0.02142 0,-0.02142 0,-0.02142c-0.21408,-0.40686 13.21219,-7.06647 12.99811,-7.47336c-3.38339,-6.70248 -7.66613,-12.33429 -2.14135,-36.40323l-5.63178,-10.12869l14.39,12.29157l3.31909,2.84793l5.35342,4.53967l66.211,56.48929l44.88317,38.28766a19.79572,19.79572 0 0 1 13.662,19.93603z"/>
  <path id="svg_21" fill="#e6e6e6" d="m143.09351,270.6486l-74.24115,114.15628l29.82922,33.34115l-2.01288,1.79871l-25.35382,22.5058l-7.17352,6.35992l-13.27655,-2.69818s-2.63385,-4.00433 -16.48856,-6.06012c-13.85458,-2.05579 -5.78159,-6.76666 0.34268,-15.97461c1.45612,-2.20557 -4.19711,1.26349 -4.56112,0.49261c-0.17133,-0.47119 -3.59748,-2.0343 -4.28275,-2.14135c-2.82663,-0.53534 -0.0643,-2.14136 -4.13281,-2.97657c-6.53116,-1.32763 -6.91657,3.29767 -19.57215,-21.6492c-0.02145,-0.02142 0,-0.02142 0,-0.02142c-0.21408,-0.40686 -0.40686,-0.7923 -0.62094,-1.19916c-3.38339,-6.70248 -0.9422,-25.33239 4.58255,-49.40133c8.43686,-36.70307 24.02607,-86.0401 37.00275,-124.82026a55.95274,55.95274 0 1 1 99.959,48.28782l0.00005,-0.00009z"/>
  <path id="svg_22" fill="#f2f2f2" d="m172.60498,563.67126a1.52141,1.52141 0 0 0 1.423,-2.47885l-0.05172,-0.42421l0.05352,-0.09354a4.08563,4.08563 0 0 1 7.47411,0.968c0.85264,3.09933 2.0387,6.24569 2.0305,9.4083a12.08649,12.08649 0 0 1 -0.72914,4.098a48.45968,48.45968 0 0 0 6.88456,-19.41934a46.7746,46.7746 0 0 0 0.36307,-5.21325q0.02739,-2.14377 -0.13386,-4.28075a49.02015,49.02015 0 0 0 -7.0533,-21.82651a13.04571,13.04571 0 0 1 -4.681,-6.2621a9.94931,9.94931 0 0 1 -0.55868,-2.811c0.25774,0.06731 1.48572,-3.83269 1.31887,-4.10245c0.43492,-0.50826 1.12324,-0.70158 1.59012,-1.19226c2.322,-2.44017 4.99608,-1.6269 5.96335,2.20746c2.85458,1.92158 2.5633,4.47657 0.38455,6.69506c-1.38614,1.41148 -1.81523,3.5032 -3.0694,5.04315c0.09015,0.151 0.18509,0.29828 0.27522,0.44923a49.33912,49.33912 0 0 1 4.09152,8.73679a20.51008,20.51008 0 0 1 2.40339,-9.29924c1.51559,-2.659 3.9923,-4.74763 6.21663,-6.93143a4.20968,4.20968 0 0 1 7.1815,2.98638l-0.002,0.10867q-0.4579,0.18742 -0.90163,0.40685a2.06369,2.06369 0 0 0 0.357,3.83l0.04094,0.01167a20.53192,20.53192 0 0 1 -0.92,2.97861c1.265,9.83223 -4.48714,12.63213 -12.09736,11.83349c-0.17836,0.06485 -0.35249,0.1302 -0.53029,0.1908a50.3585,50.3585 0 0 1 1.09807,12.9951a47.75685,47.75685 0 0 1 -0.99651,7.64744l0.02428,-0.0886a12.62152,12.62152 0 0 1 5.184,-6.69321c3.62954,-2.28879 8.40241,-2.69951 12.22461,-4.42545a2.36864,2.36864 0 0 1 3.312,2.73888l-0.02644,0.093a13.85692,13.85692 0 0 0 -1.63579,0.5493q-0.458,0.18755 -0.90164,0.40685a2.06369,2.06369 0 0 0 0.357,3.83l0.041,0.01165l0.08429,0.02374a20.55119,20.55119 0 0 1 -4.48912,5.40142c-2.58486,8.11928 -9.29686,8.0765 -16.06621,4.76621l-0.00437,-0.00052a50.343,50.343 0 0 1 -4.58715,9.3737l-11.98671,-1.50717c-0.02628,-0.13861 -0.04764,-0.281 -0.06955,-0.419a13.7266,13.7266 0 0 0 3.34166,0.2195c-0.75216,-1.20311 -1.50317,-2.4148 -2.25532,-3.6179a0.742,0.742 0 0 1 -0.04777,-0.07147c-0.3809,-0.61518 -0.76662,-1.22672 -1.14753,-1.84195l-0.00015,-0.00072a20.10637,20.10637 0 0 1 1.22349,-5.00838l0.00039,0.00005z"/>
 </g>

</svg>